<svg xmlns="http://www.w3.org/2000/svg" enable-background="new 0 0 24 24" viewBox="0 0 24 24"><polygon fill="#6369D6" points="3.329 18.242 4.349 17.219 8.328 13.198 13.319 18.242 15.906 15.635 13.479 13.191 10.9 10.576 8.328 7.977 .75 15.635"/><polygon fill="#6369D6" points="16.035 10.432 20.794 15.242 23.25 12.756 16.035 5.465 11.899 9.645 14.362 12.13"/><path d="M3.288 19c-.192 0-.383-.073-.53-.219L.22 16.248C.079 16.107 0 15.916 0 15.717s.079-.39.22-.531l7.456-7.441c.293-.292.767-.292 1.06 0l7.455 7.44c.142.141.221.332.221.532s-.08.391-.221.532l-2.545 2.533c-.293.292-.767.291-1.059-.001l-4.381-4.373-4.39 4.375C3.67 18.928 3.479 19 3.288 19zM1.812 15.717l1.479 1.476 4.386-4.375c.293-.292.767-.292 1.06 0l4.382 4.373 1.481-1.474L8.206 9.335 1.812 15.717zM20.962 16.229c-.192 0-.383-.073-.53-.219l-4.387-4.378-.932.937c-.14.141-.331.221-.53.221 0 0-.001 0-.001 0-.199 0-.389-.079-.529-.219l-2.545-2.537c-.141-.141-.221-.332-.221-.531s.079-.39.22-.531l3.756-3.753c.293-.292.767-.292 1.06 0l7.456 7.441c.141.141.22.332.22.53 0 .199-.079.39-.22.531l-2.288 2.287C21.346 16.155 21.154 16.229 20.962 16.229zM16.044 9.82c.199 0 .389.079.53.219l4.388 4.379 1.227-1.227L15.794 6.81l-2.695 2.692 1.481 1.476.932-.937c.14-.141.331-.221.53-.221C16.043 9.82 16.043 9.82 16.044 9.82z"/></svg>